<?xml version="1.0" encoding="UTF-8" standalone="no"?>
<!-- Created with Inkscape (http://www.inkscape.org/) -->

<svg
   width="106.87027mm"
   height="96.995117mm"
   viewBox="0 0 106.87027 96.995117"
   version="1.1"
   id="svg734"
   xmlns="http://www.w3.org/2000/svg"
   xmlns:svg="http://www.w3.org/2000/svg">
  <defs
     id="defs731" />
  <g
     id="layer1"
     transform="translate(-57.270906,-87.346464)">
    <path
       style="fill:#3d4970;stroke:#3d4970;stroke-width:0.264583"
       id="path738"
       d="m 62.28038,101.88193 c -0.0166,1.02974 -0.46001,1.78216 -1.21552,2.44831 -0.38355,0.22729 -0.85334,0.52284 -1.33022,0.45681 -0.16534,-0.0229 -0.602,-0.27385 -0.47077,-0.17068 0.20119,0.15817 0.45857,0.45516 0.68774,0.34125 0.19231,-0.0956 -0.3022,-0.30518 -0.4533,-0.45778 -0.79508,-1.07273 -1.1202,-1.71173 -0.72238,-3.02172 0.5651,-1.28769 1.6125,-2.160547 2.84359,-2.774902 1.34941,-0.573209 2.7995,-0.590801 4.23894,-0.579019 1.58996,0.0741 3.17999,0.121584 4.77186,0.110103 1.49847,0.01685 2.99055,-0.08836 4.47811,-0.257286 1.16341,-0.130609 2.30793,-0.379148 3.44436,-0.654539 0.88952,-0.164981 1.7347,-0.467344 2.57818,-0.786572 1.11923,-0.412729 2.22556,-0.859539 3.22827,-1.510948 0.83892,-0.527331 1.58437,-1.154099 2.19655,-1.932771 0.58189,-0.764619 0.88147,-1.63417 0.92799,-2.585648 -0.0793,-0.778058 -0.19959,-1.693395 -0.80732,-2.240053 -0.53077,-0.253936 -1.03725,-0.566568 -1.59229,-0.761807 -0.62449,-0.21967 -1.94563,1.07977 -2.31313,1.46031 -1.17708,1.252154 -1.75524,2.889909 -2.40137,4.449106 -0.86267,1.940512 -1.47508,3.98081 -2.03499,6.025586 -0.49139,1.97965 -1.06624,3.93681 -1.591,5.90739 -0.47657,1.80777 -0.8993,3.62877 -1.41847,5.42506 -0.46852,1.58471 -0.97132,3.15876 -1.47034,4.73402 -0.43939,1.36258 -0.84499,2.73573 -1.28583,4.09786 -0.25196,0.8692 -0.66393,1.67439 -1.08402,2.47127 -0.41773,0.74588 -0.76802,1.52607 -1.2781,2.21498 -0.68397,0.63204 -1.56122,0.99371 -2.46504,1.17189 0.043,0.3555 -1.46856,-0.34396 -1.08364,-0.17462 0.30149,0.13263 0.57465,0.44073 0.90193,0.40362 0.19262,-0.0218 -0.25383,-0.29666 -0.34727,-0.46651 -0.10719,-0.19484 -0.16647,-0.41242 -0.24971,-0.61864 -0.28735,-1.25132 -0.099,-2.51221 0.81909,-3.46341 0.21164,-0.21929 0.46374,-0.39555 0.69562,-0.59333 1.589,-1.01652 3.37614,-1.23481 5.21536,-1.14087 1.55224,0.13832 3.09204,0.38294 4.62906,0.63486 1.39232,0.25494 2.7993,0.38216 4.21399,0.37898 1.21162,0.01 2.34171,-0.18338 3.41595,-0.74496 1.01771,-0.64297 1.69739,-1.25238 1.95007,-2.45839 0.0243,-1.97729 -0.50133,-1.90552 -2.32119,-2.63701 -1.56316,0.86596 -2.44679,2.48526 -3.24201,4.01996 -0.80785,1.64627 -1.27173,3.42638 -1.82281,5.16749 -0.41207,1.34398 -1.10952,2.55278 -1.90531,3.70053 -0.42418,0.75101 -1.21921,1.18748 -1.71767,1.87288 -0.12916,0.17759 -0.21826,0.3811 -0.32739,0.57166 0,0 0.3452,0.22631 0.3452,0.22631 v 0 c 0.34531,-0.0461 0.70375,-0.0333 1.03593,-0.13825 0.81222,-0.25669 1.36732,-1.21113 1.86892,-1.82427 0.79249,-1.16492 1.50652,-2.38609 1.9099,-3.74644 0.51964,-1.74522 0.97068,-3.52322 1.77265,-5.16754 0.76949,-1.48463 1.64532,-3.12587 3.2314,-3.85739 -0.28141,-0.23245 -0.57249,-0.45369 -0.84425,-0.69736 -0.57064,-0.51167 0.39275,0.23095 0.53112,0.45783 0.24886,0.40807 0.19264,0.91892 0.21392,1.37064 -0.23036,1.12698 -0.93591,1.74382 -1.87475,2.35408 -1.05559,0.53187 -2.1758,0.70557 -3.35569,0.70494 -1.39099,-0.002 -2.7782,-0.11218 -4.1486,-0.35809 -1.53162,-0.24453 -3.06701,-0.47935 -4.61378,-0.6044 -1.94938,-0.0738 -3.57356,0.17318 -5.26934,1.22153 -0.24395,0.20097 -0.50904,0.37874 -0.73185,0.60292 -0.95793,0.96387 -1.20914,2.23959 -0.96989,3.54194 0.0673,0.21284 0.10889,0.43559 0.20187,0.63852 0.50784,1.10835 1.92475,1.89869 3.1209,1.68858 0.90919,-0.22138 1.77514,-0.66427 2.46594,-1.29947 0.49954,-0.70442 0.86091,-1.48358 1.28191,-2.2364 0.42478,-0.80315 0.84594,-1.61963 1.09813,-2.49608 0.3733,-1.38544 0.79851,-2.75536 1.23938,-4.12063 0.49222,-1.58022 0.99464,-3.1568 1.45344,-4.74729 0.51078,-1.80113 0.9294,-3.62575 1.39899,-5.43781 0.54361,-1.96768 1.05869,-3.94288 1.56653,-5.92007 0.56586,-2.038331 1.16334,-4.074887 2.02735,-6.010751 0.64758,-1.540399 1.23886,-3.149856 2.40327,-4.38854 0.43253,-0.427752 0.86071,-0.851046 1.41614,-1.121114 0.15113,-0.07348 0.3086,-0.138975 0.47267,-0.175281 0.12957,-0.02867 0.47582,0.08997 0.39773,-0.01733 -0.20792,-0.28565 -0.57376,-0.412435 -0.86064,-0.618652 0.089,0.05518 0.19487,0.08964 0.26702,0.165553 0.34783,0.365985 0.50207,1.449964 0.55973,1.928765 -0.0438,0.919001 -0.3281,1.763461 -0.88968,2.502672 -0.59302,0.752459 -1.28436,1.412986 -2.08363,1.94686 -0.99505,0.631145 -2.0699,1.112493 -3.1799,1.506797 -0.85151,0.297161 -1.71145,0.556479 -2.59019,0.760616 -1.12435,0.277453 -2.258,0.519234 -3.40871,0.659392 -1.46841,0.179546 -2.94287,0.279688 -4.42297,0.278931 -1.59306,0.0057 -3.18365,-0.04747 -4.77513,-0.11413 -1.45544,-0.003 -2.92045,0.02209 -4.27624,0.626411 -1.25485,0.636617 -2.34276,1.532128 -2.93186,2.843381 -0.45704,1.42749 -0.16578,1.93026 0.64982,3.14205 0.77176,0.87102 0.49079,0.65081 2.09136,1.4775 0.64741,0.33438 1.30937,-0.0485 1.79891,-0.45979 0.75854,-0.79684 1.12379,-1.49669 1.09281,-2.61782 0,0 -0.97141,-0.50379 -0.97141,-0.50379 z" />
    <path
       style="fill:#3d4970;stroke:#3d4970;stroke-width:0.264583"
       id="path740"
       d="m 96.77544,115.79854 c 1.04043,-0.48873 1.92971,-1.16473 2.77631,-1.93121 0.85073,-0.82842 1.51111,-1.82206 2.08898,-2.85297 0.29822,-0.72525 0.37789,-1.13228 -0.29515,-1.61869 -1.55638,-0.84743 -2.27535,-1.45585 -3.9633,-0.77446 -1.22347,0.61067 -1.94452,1.67697 -2.523,2.87042 -0.61399,1.39044 -0.89412,2.85737 -0.87205,4.36996 0.0381,1.11001 0.37109,2.13919 0.88597,3.11173 0.41697,0.54895 0.73997,1.34337 1.3649,1.70873 0.51408,0.30055 1.0506,0.56097 1.5759,0.84146 1.22766,0.26247 2.49461,-0.13904 3.65172,-0.53908 1.49163,-0.51073 2.70529,-1.52078 3.8514,-2.56866 1.11671,-1.11139 2.16039,-2.29622 3.10772,-3.55486 1.03156,-1.3621 2.02033,-2.75647 3.01661,-4.14456 0.90465,-1.34845 1.76659,-2.7312 2.57831,-4.13802 0.80228,-1.39997 1.54405,-2.83212 2.22304,-4.29556 0.52258,-1.09343 0.92989,-2.23678 1.20925,-3.415214 0.16686,-0.794578 0.29366,-1.617348 0.0902,-2.413302 -0.27651,-0.934862 -1.46681,-1.720175 -2.37717,-1.735679 -0.15933,-0.0027 -0.31533,0.04624 -0.47299,0.06936 -1.606,0.622678 -2.52741,2.103586 -3.31983,3.546144 -1.06255,2.223171 -1.41034,4.694521 -1.80619,7.102941 -0.36989,2.62438 -0.74638,5.25149 -0.94419,7.89547 -0.13082,1.50319 -0.0976,3.00697 0.20478,4.4855 0.23004,0.8519 0.49175,1.721 1.07928,2.39617 1.71646,1.33563 2.51716,1.32087 4.04866,0.17059 1.34241,-1.27191 2.2922,-2.86606 3.24768,-4.43106 0.84307,-1.30228 1.5648,-2.79251 2.82863,-3.75587 0.18567,-0.14153 0.39815,-0.24392 0.59722,-0.36589 0.68776,-0.27841 1.40895,-0.33308 2.12088,-0.13567 -0.0812,-0.0799 0.18498,0.10507 0.1406,0.0757 -0.43732,-0.28951 -0.83561,-0.64865 -1.3113,-0.86951 -0.30783,-0.14292 -1.30015,0.54619 -1.51936,0.68647 -1.69319,1.33972 -2.60218,3.07676 -3.22519,5.10088 -0.3963,1.30351 -0.52065,2.63274 0.0651,3.88447 0.58509,1.05097 1.41668,1.44269 2.53309,1.9982 0.13903,0.0692 0.29727,0.10489 0.45244,0.11114 0.17684,0.007 0.35072,-0.0478 0.52609,-0.0717 0.19406,-0.11265 0.40646,-0.19842 0.5822,-0.33795 1.22235,-0.97046 1.92917,-2.55637 2.52389,-3.95005 0.30618,-1.06265 0.77055,-2.13647 0.86635,-3.25073 -0.45828,-0.10324 -0.90811,-0.363 -1.37484,-0.30972 -0.16713,0.0191 -0.10492,0.31999 -0.14536,0.48328 -0.21592,0.87187 -0.29788,1.76278 -0.35399,2.6563 0.0199,0.70776 -0.19533,1.47577 0.15564,2.12222 0.77743,0.84641 1.84729,1.46753 3.00228,1.49741 1.26442,-0.41172 2.03926,-1.59105 2.75357,-2.6418 0.83383,-1.41885 1.47323,-2.93794 2.08453,-4.46227 0.17025,-0.42438 0.33901,-0.8491 0.50219,-1.2762 0.0306,-0.0802 0.0562,-0.16261 0.0933,-0.23999 0.0152,-0.0316 0.0966,-0.0766 0.0624,-0.0846 -0.39955,-0.0931 -0.81123,-0.12294 -1.21685,-0.18441 -0.15354,1.7976 -0.47139,3.57804 -0.7647,5.35721 -0.0725,0.48591 -0.17195,0.96697 -0.25806,1.45048 -0.0353,0.1979 -0.0659,0.38414 -0.0633,0.38503 0.45529,0.15397 0.93792,0.2105 1.40687,0.31575 0.49621,-1.44758 1.28055,-2.76096 2.15252,-4.00889 0.82717,-1.15295 1.89328,-2.06779 3.06678,-2.84752 0.23142,-0.13873 0.49859,-0.36069 0.79462,-0.27927 0.0858,0.0236 0.31641,0.16205 0.23375,0.12906 -1.02839,-0.41044 -1.05583,-0.72076 -0.70273,0.0388 0.33906,1.27338 0.34506,2.60385 0.44727,3.91036 0.0489,0.95354 0.19153,1.89691 0.37721,2.83229 0.0959,0.19479 0.0799,0.48526 0.20852,0.66709 0.43153,0.60987 1.72682,1.15929 2.13757,1.39334 1.23606,0.65254 1.9703,-0.11043 2.8056,-0.99313 1.08509,-1.21501 2.00272,-2.56541 2.96975,-3.87332 0.70557,-0.91769 1.369,-1.87609 2.30213,-2.57457 1.14897,-0.61286 2.44569,-0.54264 3.69913,-0.40274 0.33053,0.0789 0.70487,0.055 1.02188,0.19399 -0.97898,-0.87541 -1.96168,-1.4775 -3.23028,-1.75596 -1.596,-0.0963 -2.66406,0.99708 -3.61762,2.1292 -0.83915,1.16902 -1.30736,2.50806 -1.46683,3.92809 -0.0724,0.71307 0.0624,1.41449 0.29032,2.08656 0.2123,0.56375 0.51347,0.96397 1.02376,1.27875 1.11598,0.79692 1.82927,1.08173 3.08345,1.02133 1.15245,-0.21481 2.01572,-1.1853 2.76232,-2.01984 1.38741,-1.7804 2.28916,-3.86324 3.21954,-5.90228 0.94483,-2.22764 1.99197,-4.40931 3.09557,-6.5621 1.05335,-2.07403 2.1748,-4.12769 2.70051,-6.40853 0.28308,-1.77241 -0.0172,-2.00579 -1.89335,-2.858654 -0.19022,-0.08648 -0.41839,-0.06625 -0.62562,-0.03947 -0.2587,0.03344 -0.50114,0.144991 -0.75171,0.21749 -0.27158,0.154255 -0.56583,0.274108 -0.81474,0.462767 -1.95448,1.481327 -2.78087,3.910387 -3.53596,6.133607 -0.97375,2.89457 -1.12576,5.92518 -1.13631,8.9498 -0.0272,1.6011 0.0982,3.19381 0.3601,4.77168 0.10212,0.29808 0.06,0.66179 0.22742,0.93353 1.03385,0.71353 1.83484,1.13746 3.03595,1.00241 0.59562,-0.064 1.14109,-0.29163 1.66349,-0.57043 0.68798,-0.39529 1.39293,-0.76026 2.10795,-1.10393 0.61964,-0.35703 1.3041,-0.41164 2.00195,-0.46832 0.57657,0.0351 1.21537,-0.12584 1.77482,0.0805 0.12348,0.0455 0.47226,0.23124 0.34967,0.18336 -0.30539,-0.1193 -0.59962,-0.26541 -0.89944,-0.39812 0.37122,0.41165 0.65512,0.88559 0.92195,1.36805 0.0637,0.11523 0.0967,0.25216 0.18697,0.34801 0.17142,0.18196 0.38937,0.31363 0.58405,0.47045 0,0 0.49554,0.22387 0.49554,0.22387 v 0 c 0.10318,-0.0237 0.2819,0.031 0.30954,-0.0712 0.0484,-0.17906 -0.99366,-1.55819 -1.12147,-1.77426 -1.88162,-1.25313 -1.80089,-1.41156 -3.82435,-1.30356 -0.71916,0.0617 -1.42617,0.11738 -2.05908,0.49797 -0.71156,0.35866 -1.41065,0.74098 -2.12607,1.09213 -0.5262,0.2393 -1.06482,0.45966 -1.64776,0.50878 -0.31591,0.0128 -0.61557,0.01 -0.92823,-0.0472 -0.62353,-0.11344 -1.59036,-0.6975 0.66652,0.56656 -0.29513,-0.0984 -0.258,-0.64596 -0.36089,-0.87832 -0.33874,-1.57769 -0.43307,-3.18577 -0.47043,-4.79657 -0.0333,-3.01733 0.1254,-6.04111 1.06532,-8.93564 0.75007,-2.17594 1.56531,-4.61628 3.54884,-6.00523 0.25131,-0.17598 0.54697,-0.27806 0.82046,-0.41709 0.24483,-0.055 0.48389,-0.15205 0.73449,-0.16488 0.20423,-0.0104 0.68853,0.28335 0.60589,0.0963 -0.12838,-0.29064 -0.48172,-0.474708 -0.7954,-0.525296 -0.1581,-0.02551 0.17676,0.274936 0.21184,0.431186 0.0788,0.35074 -0.0468,0.94022 -0.0939,1.26109 -0.48412,2.28007 -1.5513,4.35216 -2.59821,6.42 -1.09821,2.16007 -2.16323,4.33437 -3.07965,6.57942 -0.90656,2.03126 -1.79345,4.11425 -3.20497,5.85621 -0.75138,0.806 -1.59946,1.71886 -2.74494,1.88952 -0.31543,0.0195 -0.61793,0.0285 -0.93039,-0.0319 -0.56084,-0.10843 -1.54336,-0.68718 0.52955,0.46307 -0.51829,-0.28608 -0.84937,-0.61126 -1.0621,-1.17926 -0.24577,-0.65571 -0.40153,-1.34032 -0.35769,-2.04614 0.11353,-1.39923 0.55529,-2.72803 1.38835,-3.87132 0.92716,-1.11236 1.99819,-2.16374 3.56207,-1.97082 0.5021,0.13066 0.44487,0.0954 0.91236,0.29489 0.63312,0.27016 2.23702,1.28794 -0.11738,-0.41377 -0.33449,-0.08 -0.67609,-0.12479 -1.01941,-0.14488 -1.23629,-0.0516 -2.4558,0.0324 -3.5807,0.60808 -0.96896,0.68695 -1.64073,1.65224 -2.33999,2.60103 -0.94055,1.3179 -1.84607,2.67031 -2.95138,3.85904 -0.87483,0.81745 -1.54941,1.45446 -2.74064,0.82556 1.73754,1.05697 0.47573,0.35675 0.21973,0.0709 -0.14625,-0.16332 -0.12425,-0.47536 -0.23378,-0.65634 -0.22497,-0.93754 -0.39483,-1.8859 -0.45435,-2.8499 -0.10909,-1.31585 -0.14325,-2.646 -0.41659,-3.9414 -0.058,-0.15581 -0.0514,-0.35501 -0.17391,-0.46742 -0.89923,-0.82539 -1.51837,-1.37003 -2.47455,-0.69167 -1.16154,0.81342 -2.22584,1.74982 -3.06403,2.90425 -0.89224,1.2419 -1.66407,2.56741 -2.24063,3.98735 0.35901,0.34629 0.68892,0.72554 1.07703,1.03887 10e-4,0.001 0.0116,-0.0767 0.0459,-0.39346 0.054,-0.49854 0.0989,-0.99815 0.17274,-1.49438 0.24591,-1.78882 0.56873,-3.56567 0.80779,-5.35544 -0.40124,-0.38034 -0.77359,-0.79367 -1.20372,-1.141 -0.0345,-0.0279 -0.0486,0.0746 -0.0667,0.11514 -0.22149,0.49668 -0.36724,1.0262 -0.57421,1.52856 -0.55702,1.53529 -1.17162,3.0606 -2.05833,4.44016 -0.69682,1.00221 -1.47358,2.21363 -2.7514,2.47329 -0.23992,-0.0175 -0.40615,-0.0173 -0.64102,-0.0871 -0.10311,-0.0306 -0.38779,-0.18247 -0.29856,-0.1224 1.79554,1.20889 0.74936,0.44192 0.39346,0.13518 -0.42588,-0.5818 -0.21022,-1.39411 -0.24811,-2.07172 0.0431,-0.88122 0.11915,-1.76495 0.34802,-2.62102 0.042,-0.15725 0.24047,-0.32597 0.1535,-0.46357 -0.2624,-0.41518 -0.72,-0.66823 -1.08,-1.00235 0.0955,0.88516 -0.56965,2.38821 -0.77614,3.23528 -0.58279,1.36055 -1.24542,2.97558 -2.53449,3.83282 -0.18008,0.11975 -0.39513,0.1759 -0.5927,0.26385 -0.17081,0.006 -0.34267,0.0377 -0.51244,0.0179 -0.2509,-0.0293 -1.6259,-0.62963 0.40822,0.39141 0.14007,0.0703 -0.25633,-0.18178 -0.37201,-0.28752 -0.30321,-0.27714 -0.36388,-0.40876 -0.59463,-0.74694 -0.66828,-1.24778 -0.54493,-2.49949 -0.20887,-3.84405 0.57422,-1.96314 1.47578,-3.78386 3.15636,-5.03603 0.38706,-0.23404 0.66007,-0.44391 1.10182,-0.5529 0.13101,-0.0323 0.46142,0.0979 0.40409,-0.0242 -0.25189,-0.53675 -0.51692,-0.68442 -0.92878,-0.80691 -0.69794,-0.16872 -1.43336,0.0239 -2.07924,0.29276 -1.60814,1.05018 -2.48933,2.55084 -3.48006,4.15345 -0.9769,1.5336 -1.90943,3.13963 -3.31672,4.32738 -0.51841,0.33594 -0.9994,0.65057 -1.63271,0.70767 -0.15582,0.0141 -0.55464,-0.14235 -0.46921,-0.0113 0.19201,0.29454 0.58261,0.39469 0.85999,0.61075 0.0946,0.0737 -0.20675,-0.12161 -0.31013,-0.18242 -0.63729,-0.63212 -0.91441,-1.50399 -1.16336,-2.34869 -0.32629,-1.47869 -0.41637,-2.98154 -0.30622,-4.49425 0.15976,-2.65189 0.48396,-5.28911 0.8801,-7.91568 0.38087,-2.39981 0.74844,-4.84204 1.79576,-7.059813 0.77608,-1.41175 1.68604,-2.88327 3.3043,-3.407632 0.1533,-0.007 0.30739,-0.03811 0.4599,-0.02109 0.13089,0.01461 0.47627,0.202422 0.3781,0.114625 -0.23942,-0.214138 -0.53647,-0.354854 -0.81854,-0.508545 -0.0962,-0.0524 0.18502,0.121693 0.25816,0.2032 0.11305,0.125992 0.18908,0.364202 0.24774,0.515189 0.19512,0.768204 0.0438,1.569733 -0.088,2.338527 -0.27795,1.17188 -0.69461,2.297459 -1.18633,3.396519 -0.65571,1.47015 -1.41592,2.88746 -2.20645,4.28923 -0.81457,1.4018 -1.62258,2.80925 -2.54901,4.14175 -0.95468,1.41401 -1.94061,2.8063 -2.97685,4.16206 -0.94347,1.24622 -1.89884,2.49059 -3.03513,3.57082 -1.14685,1.0389 -2.37082,1.99453 -3.85399,2.50418 -1.16031,0.3804 -2.42107,0.7718 -3.63665,0.43336 0.24746,0.16635 0.48623,0.3464 0.74237,0.49903 0.10683,0.0636 -0.20093,-0.14737 -0.29282,-0.23116 -0.44668,-0.40734 -0.77708,-0.93327 -1.10414,-1.43476 -0.53316,-0.95469 -0.89118,-1.97001 -0.95015,-3.07265 -0.0513,-1.4992 0.19877,-2.95373 0.80835,-4.33456 0.56507,-1.16351 1.27045,-2.21249 2.47698,-2.78604 0.71713,-0.25626 1.28001,-0.3169 2.01514,-0.0817 0.14541,0.0465 0.54009,0.26295 0.43033,0.15682 -0.22167,-0.21433 -0.52063,-0.33055 -0.78095,-0.49583 0.68802,0.40298 0.68447,0.72808 0.42553,1.46699 -0.52336,1.05169 -1.16421,2.02875 -2.01745,2.84792 -0.78639,0.77796 -1.68669,1.41659 -2.62947,1.99361 0,0 0.89315,0.57889 0.89315,0.57889 z" />
    <path
       style="fill:#3d4970;stroke:#3d4970;stroke-width:0.264583"
       id="path742"
       d="m 60.81631,148.53474 c 1.12064,1.74128 2.20721,2.20291 4.0317,3.151 1.44604,0.39319 2.62785,-0.31721 3.71022,-1.20806 1.25418,-1.13545 1.86476,-2.68317 2.30855,-4.27422 0.25422,-0.9886 0.48954,-1.98861 0.60769,-3.00407 -0.43763,-0.15885 -0.8487,-0.5124 -1.31288,-0.47655 -0.19512,0.0151 -0.0417,0.38922 -0.0677,0.58318 -0.21091,1.57263 -0.50284,3.13481 -0.77424,4.69775 -0.52569,2.87731 -1.11742,5.74206 -1.64229,8.61962 -0.48612,2.6364 -0.96876,5.27531 -1.61232,7.87858 0.0193,0.59393 -0.43279,1.11355 -0.4541,1.69956 -0.01,0.26584 0.10378,0.52181 0.15567,0.78271 0,0 0.61287,0.33277 0.61287,0.33277 v 0 c 0.16096,-0.14595 0.37875,-0.24716 0.4829,-0.43786 0.28444,-0.52085 0.10262,-1.22145 0.39405,-1.73622 0.54677,-2.63384 1.08364,-5.26976 1.54664,-7.9199 0.53446,-2.87591 1.0741,-5.75071 1.64318,-8.62005 0.22447,-1.236 0.43972,-2.474 0.67863,-3.70732 0.061,-0.3148 0.12566,-0.62889 0.18953,-0.94312 0.0373,-0.18366 0.23032,-0.40356 0.11407,-0.55057 -0.31079,-0.39306 -0.82087,-0.57491 -1.2313,-0.86237 0.007,1.01211 -0.41445,2.01144 -0.537,3.00688 -0.44196,1.56518 -1.06244,3.05182 -2.23399,4.2226 -1.05052,0.87092 -2.20421,1.53276 -3.60128,1.10876 0.16919,0.12641 0.70932,0.31673 0.50758,0.37925 -0.22245,0.0689 -0.41119,-0.22025 -0.60527,-0.34898 -0.72762,-0.4826 -1.27476,-1.15208 -1.76049,-1.8684 0,0 -1.15042,-0.50497 -1.15042,-0.50497 z" />
    <path
       style="fill:#3d4970;stroke:#3d4970;stroke-width:0.264583"
       id="path744"
       d="m 72.05435,144.42834 c 1.35023,-1.06857 2.2329,-1.03189 3.84409,-0.61923 0.25811,0.10453 0.51932,0.2017 0.77432,0.31359 0.0883,0.0388 -0.33973,-0.16433 -0.27375,-0.094 1.96325,2.09406 -0.46337,-0.97704 1.47255,1.3662 0.54444,0.65898 0.74621,1.05964 1.17717,1.78422 0.93112,1.69603 1.21531,3.57955 1.36049,5.47894 0.13609,1.72556 -0.0451,3.43741 -0.33874,5.13511 -0.42678,2.01396 -1.17166,3.94548 -2.01684,5.8169 -0.50206,0.99194 -0.97707,2.04114 -1.69804,2.90146 -0.39512,0.47149 -0.71905,0.73961 -1.17216,1.15372 -1.42294,1.15041 -3.16946,1.68465 -4.94317,1.99543 -0.9527,0.11186 -1.96113,0.16709 -2.88831,-0.13265 -0.19723,-0.0638 -0.72102,-0.38348 -0.57531,-0.23606 0.19948,0.20183 0.49766,0.27283 0.74649,0.40925 -1.06573,-0.77284 -0.79761,-1.96628 -0.44979,-3.05709 0.62505,-1.60774 1.91675,-1.31461 3.33319,-1.03995 1.80597,0.45936 3.49469,1.25972 5.27806,1.79304 1.46612,0.41612 2.98774,0.29345 4.48218,0.14418 0.78502,-0.14203 1.63617,-0.11491 2.37623,-0.4552 0.31042,-0.14274 0.69103,-0.41893 0.97329,-0.61156 1.06452,-0.81485 1.82239,-1.86732 2.46642,-3.02766 0.50594,-0.91476 0.85372,-1.90272 1.16354,-2.89754 0.47962,0.0197 -0.82579,-0.40956 -1.2601,-0.36143 -0.1713,0.019 -0.0473,0.34144 -0.0717,0.51205 -0.0857,0.59886 -0.17294,1.19742 -0.25584,1.7967 -0.1948,0.94613 -0.0925,1.86047 0.14442,2.78312 0.12411,0.39228 0.3883,0.717 0.74671,0.9265 1.46854,0.85838 1.52383,0.98861 2.93056,1.00063 1.49938,-0.0634 2.69435,-0.81721 3.74406,-1.8311 0.70865,-0.83713 1.17245,-1.82251 1.4691,-2.87025 0.14055,-0.71767 0.37918,-0.94852 -1.23577,-0.9844 -0.17247,-0.004 -0.11149,0.32654 -0.16468,0.49065 -0.0616,0.1902 -0.11988,0.38149 -0.17982,0.57223 -0.26678,0.97144 -0.51516,1.95261 -0.57254,2.96081 -0.037,0.427 2.6e-4,0.71691 0.31644,1.01356 1.06655,0.80969 1.51795,1.1623 2.7274,1.07298 1.21884,-0.091 2.29454,-0.67903 3.33334,-1.27687 1.31776,-0.85928 2.58905,-1.76172 3.72796,-2.8496 0.97703,-0.94711 1.75848,-2.03357 2.05372,-3.37232 0.26572,-1.59434 -0.78408,-2.41275 -2.41995,-2.69408 -1.04176,-0.10728 -1.70841,0.27752 -2.38229,1.02896 -0.51929,0.75883 -0.75832,1.77488 -0.17022,2.58195 0.13034,0.17887 0.31489,0.31108 0.47234,0.46662 0.61464,0.35378 1.20428,0.7551 1.84394,1.06135 0.93151,0.44597 2.67976,0.26965 3.6918,0.13656 0.57778,-0.1005 1.17257,-0.15742 1.72268,-0.37204 0.0181,-0.008 0.0718,-0.0144 0.0544,-0.0239 -0.46628,-0.25469 -0.9103,-0.57518 -1.42078,-0.72249 -0.12521,-0.0361 -0.21648,0.14515 -0.32381,0.21907 -0.5099,0.35119 -0.98864,0.72638 -1.46427,1.12258 -1.00914,0.83235 -1.4854,1.91745 -1.47283,3.21053 0.0433,0.15822 0.0625,0.3251 0.12984,0.47465 0.15224,0.33784 0.42894,0.65462 0.73933,0.85449 1.157,0.74503 1.81536,1.14835 3.05244,1.37667 1.87195,0.15373 3.38733,-0.61618 4.8997,-1.62714 1.36026,-0.99187 2.6491,-2.11033 3.70822,-3.42641 0.65847,-0.81822 0.78455,-1.10599 1.31369,-2.0039 1.12085,-2.13036 1.82013,-4.44676 2.45071,-6.76013 0.48259,-1.6487 0.54173,-3.31266 0.33758,-5.00422 -0.2321,-1.42858 -0.11487,-2.14215 -2.12312,-2.24113 -0.21458,-0.0106 -0.30091,0.30673 -0.45137,0.46009 -1.38119,1.92613 -2.12623,4.22121 -2.7894,6.4731 -0.69106,2.51691 -1.11116,5.09454 -1.47586,7.67537 -0.23337,1.36822 -0.20908,2.73914 -0.009,4.10605 0.0382,0.13693 0.12939,0.50729 0.20964,0.64654 0.43107,0.74798 1.63098,1.30432 2.4044,1.47061 1.19646,0.0123 2.32422,-0.68034 3.37108,-1.20183 1.29074,-0.65492 2.42647,-1.56934 3.54612,-2.47673 1.08697,-0.93028 2.02345,-1.99631 2.77497,-3.21136 0.21447,-0.42573 0.94572,-1.84082 0.27757,-2.23033 -0.52385,-0.30539 -1.09625,-0.51864 -1.64438,-0.77797 -1.61341,0.38923 -2.17277,1.90208 -2.64338,3.33074 -0.30765,1.20929 -0.39495,2.50856 -0.0549,3.7197 0.44197,1.24494 1.74198,1.80293 2.95172,2.15391 1.11092,0.37166 2.15074,0.0938 3.21153,-0.28996 1.856,-0.80168 3.48084,-1.98951 4.98989,-3.31672 1.22302,-1.02084 1.99418,-2.39432 2.60963,-3.83692 0.30664,-0.87633 0.6473,-1.11814 -1.13548,-1.29129 -0.14545,-0.0141 -0.0702,0.28384 -0.0985,0.42722 -0.0453,0.22974 -0.0815,0.46118 -0.12225,0.69178 -0.12622,0.77536 -0.18219,1.55986 -0.22985,2.34323 -0.0172,0.28227 -0.0595,0.82589 -0.006,1.11892 0.0318,0.17418 0.10897,0.33692 0.16346,0.50538 0.535,1.15288 1.47267,1.6253 2.69004,2.06411 0.14596,0.0526 0.30881,-0.0305 0.46322,-0.0457 1.02308,-0.36391 1.68969,-1.20369 2.39293,-1.98408 0.83094,-0.92212 0.54083,-0.58804 1.32457,-1.5849 0.94525,-1.18479 1.63378,-2.52594 2.17874,-3.93235 0.26769,-0.56284 0.40088,-0.68607 -1.30269,-0.74634 -0.17368,-0.006 -0.0709,0.34027 -0.10524,0.51065 -0.201,0.99835 -0.36633,1.99752 -0.51873,3.00449 -0.3371,2.44122 -0.60486,4.89107 -0.90527,7.33697 -0.25391,2.17557 -0.56965,4.3431 -0.85684,6.51437 -0.19831,1.58307 -0.40046,3.16271 -0.9241,4.67469 -0.52508,1.37643 -1.62872,2.22014 -2.87681,2.90625 -0.98565,0.42157 -2.04827,0.31787 -3.04033,-0.0466 -0.29408,-0.10804 -0.65623,-0.15044 -0.85334,-0.39395 -0.16799,-0.20754 0.50252,0.18063 0.75378,0.27095 -0.18331,-0.2462 -0.41653,-0.46214 -0.54992,-0.73859 -0.77322,-1.60244 0.50035,-3.4327 1.52958,-4.57599 0.34583,-0.38416 0.74761,-0.71399 1.12142,-1.07098 2.26718,-1.90567 4.23556,-2.51317 7.13268,-2.68574 2.17416,0.0276 4.30883,-0.39879 6.38407,-1.01125 1.94854,-0.61783 3.66988,-1.36435 5.22698,-2.70496 0.72137,-0.77003 1.48218,-1.55579 1.94971,-2.51638 0.13172,-0.27064 0.40019,-1.02237 0.5103,-1.32244 0.32175,-0.7359 0.0194,-1.13619 -0.39738,-1.74548 0,0 -0.72626,-0.37281 -0.72626,-0.37281 v 0 c -0.70397,0.2444 -0.66647,0.32668 -0.79374,1.07092 -0.33723,1.48723 -1.024,2.82364 -2.10239,3.91901 -1.44959,1.36491 -3.1222,2.15155 -5.01052,2.7532 -2.06927,0.59496 -4.18407,0.97953 -6.34433,0.99928 -2.94386,0.30955 -4.78923,0.86435 -7.10427,2.83094 -1.1297,1.0726 -2.17423,2.09311 -2.79185,3.55947 -0.16352,0.38826 -0.33306,0.79003 -0.36463,1.21013 -0.0594,0.79065 0.31767,1.15402 0.71134,1.75133 2.0839,1.36088 3.58741,2.66594 6.11532,1.69735 1.19609,-0.78327 2.32666,-1.66797 2.8559,-3.04596 0.53291,-1.52506 0.69731,-3.12891 0.89439,-4.72558 0.28279,-2.18 0.54001,-4.36305 0.79889,-6.54603 0.30345,-2.44405 0.55963,-4.894 0.90253,-7.33296 0.16448,-0.99336 0.33198,-1.97841 0.58874,-2.95286 0.0434,-0.16478 0.25188,-0.3595 0.1432,-0.49074 -0.33835,-0.40862 -0.83441,-0.66589 -1.30452,-0.91174 -0.0615,-0.0321 -0.0369,0.13372 -0.0553,0.20057 -0.4956,1.40839 -1.16882,2.74816 -2.08513,3.93374 -1.01668,1.29284 -2.09064,2.86945 -3.69961,3.4334 -0.84493,0.004 -0.51694,-0.0845 0.45826,0.63836 0.0931,0.069 -0.20478,-0.11075 -0.29638,-0.18175 -0.33616,-0.26055 -0.59129,-0.61737 -0.78411,-0.99119 -0.0607,-0.1561 -0.14575,-0.3048 -0.18212,-0.46829 -0.058,-0.26075 -0.0323,-0.87044 -0.0238,-1.11518 0.0271,-0.77878 0.0759,-1.55874 0.22183,-2.3258 0.0463,-0.22322 0.0833,-0.44855 0.1388,-0.66964 0.034,-0.13547 0.22299,-0.29481 0.12945,-0.39854 -1.42716,-1.58244 -1.15251,-1.03286 -1.49423,-0.17102 -0.56353,1.44609 -1.28365,2.80513 -2.47827,3.83869 -1.47793,1.34842 -3.12758,2.50543 -4.99928,3.24478 -1.05825,0.35922 -2.09229,0.57753 -3.18262,0.1974 -0.75806,-0.24827 -0.71735,-0.28029 0.35564,0.38279 0.13869,0.0857 -0.4091,-0.22549 -0.68016,-0.69649 -0.0583,-0.10126 -0.0961,-0.21297 -0.14421,-0.31945 -0.39603,-1.18632 -0.33609,-2.46946 -0.0511,-3.67531 0.42882,-1.32718 1.00554,-2.90835 2.56966,-3.1411 -0.27993,-0.21764 -0.54775,-0.45183 -0.8398,-0.65291 -0.0559,-0.0385 0.30511,0.0982 0.32507,0.58842 0.0219,0.53769 -0.31621,1.01546 -0.51166,1.48777 -0.73719,1.20542 -1.65919,2.26587 -2.74648,3.17288 -1.09957,0.91599 -2.21172,1.83291 -3.50772,2.46283 -1.04458,0.51412 -2.17842,1.19331 -3.38072,1.06768 -0.63597,-0.19567 -0.67607,-0.23817 0.63975,0.48616 0.0939,0.0517 -0.17561,-0.12336 -0.25748,-0.1925 -0.28193,-0.23814 -0.38485,-0.49475 -0.47832,-0.84935 -0.23403,-1.35773 -0.26042,-2.7291 -0.0639,-4.09641 0.30068,-2.58739 0.74507,-5.16162 1.42257,-7.67882 0.65562,-2.22448 1.37847,-4.51494 2.83149,-6.36206 0.79534,-0.69039 0.56565,-0.22893 -0.52073,-1.24089 -0.062,-0.0577 0.17084,0.0655 0.21269,0.13913 0.17304,0.30454 0.10344,1.12047 0.25565,1.43262 0.22696,1.67691 0.18888,3.3355 -0.25775,4.98152 -0.55113,2.3269 -1.28423,4.61918 -2.38766,6.7487 -1.29851,2.23295 -2.83742,3.91133 -4.97564,5.38128 -1.4774,0.93811 -3.06935,1.72982 -4.87374,1.51096 -0.21427,-0.0423 -0.43346,-0.0646 -0.64281,-0.12688 -0.2026,-0.0602 -0.67106,-0.43289 -0.58737,-0.23882 0.10157,0.23553 0.40486,0.35376 0.65707,0.40046 0.19347,0.0358 -0.3259,-0.22471 -0.46414,-0.36473 -0.32395,-0.32815 -0.31491,-0.44519 -0.45697,-0.85763 -0.0773,-1.26042 0.4184,-2.30311 1.39716,-3.10567 0.47742,-0.39346 0.95533,-0.76451 1.48557,-1.08544 0.11377,-0.0689 0.41986,-0.0823 0.34836,-0.19444 -0.67666,-1.06108 -0.63001,-1.0595 -1.11228,-0.90342 -0.54497,0.15233 -1.09568,0.291 -1.65398,0.38472 -0.95755,0.11922 -1.93332,0.20872 -2.88934,0.0117 -0.25167,-0.0519 -0.57773,-0.41345 -0.74041,-0.21455 -0.15072,0.18427 0.40223,0.25475 0.60334,0.38212 -0.17184,-0.14394 -0.36932,-0.2619 -0.51552,-0.43182 -0.6293,-0.73144 -0.4423,-1.71932 0.0594,-2.44666 0.62966,-0.67754 1.36608,-1.05989 2.31655,-0.89711 0.0533,0.0149 2.08662,0.62734 -0.39965,-0.38791 -0.12323,-0.0503 0.20474,0.1744 0.2817,0.28299 0.27167,0.38336 0.22277,0.82328 0.13541,1.2563 -0.33982,1.28875 -1.07347,2.35815 -2.00699,3.30328 -1.10945,1.07372 -2.32348,2.03952 -3.62147,2.87706 -1.02315,0.6006 -2.09383,1.1462 -3.301,1.21986 -0.31699,0.006 -0.48453,0.033 -0.78604,-0.0461 -0.0828,-0.0217 -0.30858,-0.14634 -0.23636,-0.10039 1.84797,1.1757 1.09496,0.63545 0.68612,0.38706 -0.3387,-0.24233 -0.39085,-0.48346 -0.3719,-0.8998 0.009,-1.00115 0.24762,-1.98479 0.52559,-2.94212 0.0631,-0.18708 0.1214,-0.37584 0.18925,-0.56125 0.0549,-0.15015 0.27354,-0.31608 0.17898,-0.445 -1.25834,-1.71558 -1.02747,-1.02383 -1.20408,-0.3935 -0.27823,1.03115 -0.68285,2.01108 -1.39052,2.82982 -1.04184,0.98016 -2.20671,1.71487 -3.683,1.74398 -0.21923,-0.009 -0.44003,0.001 -0.65769,-0.0262 -0.20089,-0.0254 -0.65002,-0.32633 -0.59295,-0.13205 0.0781,0.26599 0.45609,0.31554 0.69037,0.46375 0.37577,0.23772 -1.1545,-0.7464 -0.77355,-0.83998 -0.27642,-0.90599 -0.38388,-1.8121 -0.21099,-2.75443 0.078,-0.59817 0.16021,-1.19358 0.26534,-1.78769 0.0295,-0.16647 0.19066,-0.36219 0.0912,-0.49889 -1.28246,-1.76249 -1.23487,-1.46977 -1.16498,-0.9465 -0.28192,0.99413 -0.64331,1.9702 -1.1092,2.89317 -0.64936,1.13614 -1.41644,2.16491 -2.48899,2.94095 -0.34248,0.23651 -0.56199,0.41259 -0.95058,0.57868 -0.72883,0.31151 -1.55919,0.31511 -2.32662,0.45321 -1.4838,0.14671 -2.98772,0.24304 -4.44017,-0.17857 -1.77386,-0.528 -3.45674,-1.31975 -5.25731,-1.76033 -1.50459,-0.28432 -2.84768,-0.52463 -3.52975,1.14829 -0.35565,1.11988 -0.70943,2.37653 0.35379,3.22306 0.57017,0.3281 1.12726,0.68008 1.71052,0.98431 1.03535,0.54004 2.30798,0.34389 3.41133,0.23613 1.7744,-0.35714 3.5188,-0.91368 4.94001,-2.082 0.44945,-0.4083 0.80421,-0.70206 1.19455,-1.17011 0.72518,-0.86954 1.15824,-1.94959 1.68515,-2.93808 0.85347,-1.87727 1.66814,-3.78321 2.09243,-5.81142 0.31416,-1.70878 0.48485,-3.429 0.34571,-5.16844 -0.14785,-1.9231 -0.43818,-3.82974 -1.37451,-5.5499 -0.3912,-0.66362 -0.67735,-1.20168 -1.16288,-1.80759 -1.04927,-1.30938 -2.54333,-2.26698 -4.11316,-2.82139 -1.63178,-0.39157 -2.54609,-0.34367 -3.89124,0.72451 0,0 1.03108,0.64678 1.03108,0.64678 z" />
  </g>
</svg>
